# xmcd
#
# Track frame offsets: 
#        150
#        23448
#        35294
#        58485
#        71894
#        97333
#        114031
#        134665
#        149797
#        174130
#        191873
#        204158
#        219119
#        232421
#        245686
#        257737
#
# Disc length: 3761 seconds
#
# Revision: 0
# Processed by: cddbd v1.5.2PL0 Copyright (c) Steve Scherf et al.
# Submitted via: ExactAudioCopy v1.0b4
#
DISCID=f70eaf10
DTITLE=J. J. Malone - Win Some Lose Some
DYEAR=2007
DGENRE=Blues
TTITLE0=The Dance Called The Crawl
TTITLE1=The Girl In The Green Dress
TTITLE2=Early Age Blues
TTITLE3=Wish Me Well
TTITLE4=Let's Make It Funky
TTITLE5=Stop It Baby
TTITLE6=Come On Up
TTITLE7=Blues About Oaktown
TTITLE8=Louisiana Trace
TTITLE9=It Should've Been Me
TTITLE10=Down In The Bottom
TTITLE11=Bad Dreams
TTITLE12=Gimme Mine Out Now
TTITLE13=The Enemy Called Hate
TTITLE14=Riches In Power
TTITLE15=Down That Lonesome Road
EXTD=
EXTT0=
EXTT1=
EXTT2=
EXTT3=
EXTT4=
EXTT5=
EXTT6=
EXTT7=
EXTT8=
EXTT9=
EXTT10=
EXTT11=
EXTT12=
EXTT13=
EXTT14=
EXTT15=
PLAYORDER=
